<svg id="Layer_1" data-name="Layer 1" xmlns="http://www.w3.org/2000/svg" viewBox="0 0 575.9 512.1"><defs><style>.cls-1{fill:#fff;}</style></defs><path class="cls-1" d="M0,64A64.06,64.06,0,0,1,64,0H224V128a32,32,0,0,0,32,32H384V285.7l-86.8,86.8a79.55,79.55,0,0,0-21,37.2l-18.7,74.9a47.65,47.65,0,0,0,1.3,27.5H64a64.06,64.06,0,0,1-64-64Zm384,64H256V0ZM549.8,235.7l14.4,14.4a40.08,40.08,0,0,1,0,56.6l-29.4,29.4-71-71,29.4-29.4a40.08,40.08,0,0,1,56.6,0ZM311.9,417,441.1,287.8l71,71L382.9,487.9a31.67,31.67,0,0,1-14.9,8.4l-60.1,15a16,16,0,0,1-19.4-19.4l15-60.1a32.15,32.15,0,0,1,8.4-14.9Z"/></svg>