<svg id="Layer_1" data-name="Layer 1" xmlns="http://www.w3.org/2000/svg" viewBox="0 0 482.58 511.9"><defs><style>.cls-1{fill:#757575;}</style></defs><path class="cls-1" d="M495.9,166.6a22.65,22.65,0,0,1-6.4,24.6l-43.3,39.4a190.6,190.6,0,0,1,0,50.8l43.3,39.4a22.65,22.65,0,0,1,6.4,24.6,247.87,247.87,0,0,1-15.8,34.3l-4.7,8.1A254.46,254.46,0,0,1,453.3,419c-5.9,7.2-15.7,9.6-24.5,6.8l-55.7-17.7a192.43,192.43,0,0,1-44,25.4l-12.5,57.1a22.6,22.6,0,0,1-18.2,17.8,259.79,259.79,0,0,1-85,0,22.6,22.6,0,0,1-18.2-17.8l-12.5-57.1a192.43,192.43,0,0,1-44-25.4L83.1,425.9a22.83,22.83,0,0,1-24.5-6.8,254.46,254.46,0,0,1-22.1-31.2l-4.7-8.1A247.87,247.87,0,0,1,16,345.5a22.65,22.65,0,0,1,6.4-24.6l43.3-39.4A196.19,196.19,0,0,1,64,256a193.49,193.49,0,0,1,1.7-25.4L22.4,191.2A22.65,22.65,0,0,1,16,166.6a247.87,247.87,0,0,1,15.8-34.3l4.7-8.1A254.46,254.46,0,0,1,58.6,93c5.9-7.2,15.7-9.6,24.5-6.8l55.7,17.7a192.43,192.43,0,0,1,44-25.4l12.5-57.1A22.6,22.6,0,0,1,213.5,3.6,247.9,247.9,0,0,1,256,0a258.4,258.4,0,0,1,42.5,3.5,22.6,22.6,0,0,1,18.2,17.8l12.5,57.1a192.43,192.43,0,0,1,44,25.4l55.7-17.7a22.83,22.83,0,0,1,24.5,6.8,254.46,254.46,0,0,1,22.1,31.2l4.7,8.1A247.87,247.87,0,0,1,496,166.5ZM256,336a80,80,0,1,0-80-80A80,80,0,0,0,256,336Z" transform="translate(-14.66)"/></svg>