<svg id="Layer_1" data-name="Layer 1" xmlns="http://www.w3.org/2000/svg" viewBox="0 0 496 416"><defs><style>.cls-1{fill:#757575;}</style></defs><path class="cls-1" d="M40,48A23.94,23.94,0,0,0,16,72v48a23.94,23.94,0,0,0,24,24H88a23.94,23.94,0,0,0,24-24V72A23.94,23.94,0,0,0,88,48ZM192,64a32,32,0,0,0,0,64H480a32,32,0,0,0,0-64Zm0,160a32,32,0,0,0,0,64H480a32,32,0,0,0,0-64Zm0,160a32,32,0,0,0,0,64H480a32,32,0,0,0,0-64ZM16,232v48a23.94,23.94,0,0,0,24,24H88a23.94,23.94,0,0,0,24-24V232a23.94,23.94,0,0,0-24-24H40A23.94,23.94,0,0,0,16,232ZM40,368a23.94,23.94,0,0,0-24,24v48a23.94,23.94,0,0,0,24,24H88a23.94,23.94,0,0,0,24-24V392a23.94,23.94,0,0,0-24-24Z" transform="translate(-16 -48)"/></svg>