<svg id="Layer_1" data-name="Layer 1" xmlns="http://www.w3.org/2000/svg" viewBox="0 0 448 512"><defs><style>.cls-1{fill:#ea40a4;}</style></defs><path class="cls-1" d="M135.2,17.7A31.87,31.87,0,0,1,163.8,0H284.2a31.87,31.87,0,0,1,28.6,17.7L320,32h96a32,32,0,0,1,0,64H32a32,32,0,0,1,0-64h96ZM32,128H416V448a64.06,64.06,0,0,1-64,64H96a64.06,64.06,0,0,1-64-64Zm96,64a16,16,0,0,0-16,16V432a16,16,0,0,0,32,0V208A16,16,0,0,0,128,192Zm96,0a16,16,0,0,0-16,16V432a16,16,0,0,0,32,0V208A16,16,0,0,0,224,192Zm96,0a16,16,0,0,0-16,16V432a16,16,0,0,0,32,0V208A16,16,0,0,0,320,192Z"/></svg>