<svg id="Layer_1" data-name="Layer 1" xmlns="http://www.w3.org/2000/svg" viewBox="0 0 639.9 512"><defs><style>.cls-1{fill:#757575;}</style></defs><path class="cls-1" d="M224,256A128,128,0,1,0,96,128,128,128,0,0,0,224,256Zm-45.7,48A178.26,178.26,0,0,0,0,482.3,29.7,29.7,0,0,0,29.7,512H322.8a48.63,48.63,0,0,1-1.4-27.8l15-60.1a63.5,63.5,0,0,1,16.8-29.7l40.3-40.3A177.67,177.67,0,0,0,269.6,304Zm435.5-68.3a40.08,40.08,0,0,0-56.6,0l-29.4,29.4,71,71,29.4-29.4a40.08,40.08,0,0,0,0-56.6l-14.4-14.4ZM375.9,417a31.67,31.67,0,0,0-8.4,14.9l-15,60.1a16,16,0,0,0,19.4,19.4l60.1-15a32.15,32.15,0,0,0,14.9-8.4L576.1,358.7l-71-71Z"/></svg>